<svg width="200" height="200" xmlns="http://www.w3.org/2000/svg" opacity="0.3">
 <defs>
  <linearGradient y2="0" x2="1" y1="0" x1="0" id="svg_9">
   <stop offset="0" stop-opacity="0.5" stop-color="#ffff00"/>
   <stop offset="1" stop-opacity="0.5" stop-color="#0000ff"/>
  </linearGradient>
  <linearGradient y2="0" x2="0.53516" y1="0.98593" x1="0.53516" id="svg_14">
   <stop offset="0" stop-opacity="0.5" stop-color="#ffff00"/>
   <stop offset="1" stop-opacity="0.5" stop-color="#0000ff"/>
   <stop offset="NaN" stop-opacity="0" stop-color="0"/>
   <stop offset="NaN" stop-opacity="0" stop-color="0"/>
   <stop offset="NaN" stop-opacity="0" stop-color="0"/>
   <stop offset="NaN" stop-opacity="0" stop-color="0"/>
   <stop offset="NaN" stop-opacity="0" stop-color="0"/>
  </linearGradient>
  <linearGradient spreadMethod="pad" y2="0" x2="0" y1="0" x1="1" id="svg_15">
   <stop offset="0" stop-opacity="0.5" stop-color="#ffff00"/>
   <stop offset="1" stop-opacity="0.5" stop-color="#0000ff"/>
   <stop offset="NaN" stop-opacity="0" stop-color="0"/>
   <stop offset="NaN" stop-opacity="0" stop-color="0"/>
   <stop offset="NaN" stop-opacity="0" stop-color="0"/>
   <stop offset="NaN" stop-opacity="0" stop-color="0"/>
   <stop offset="NaN" stop-opacity="0" stop-color="0"/>
  </linearGradient>
  <linearGradient spreadMethod="pad" y2="0.86874" x2="1" y1="0.09531" x1="0" id="svg_18">
   <stop offset="0" stop-opacity="0.5" stop-color="#ffff00"/>
   <stop offset="1" stop-opacity="0.5" stop-color="#0000ff"/>
   <stop offset="NaN" stop-opacity="0" stop-color="0"/>
   <stop offset="NaN" stop-opacity="0" stop-color="0"/>
   <stop offset="NaN" stop-opacity="0" stop-color="0"/>
   <stop offset="NaN" stop-opacity="0" stop-color="0"/>
   <stop offset="NaN" stop-opacity="0" stop-color="0"/>
  </linearGradient>
 </defs>
 <g>
  <title>Layer 1</title>
  <g stroke-opacity="0.63" stroke="null">
   <g transform="rotate(31.194 133.885 128.692)" stroke="null">
    <path fill="none" stroke="url(#svg_18)" clip-rule="evenodd" fill-rule="evenodd" d="m149.18058,137.57883l-0.19283,-7.98619l-11.73066,3.79134c-1.05701,0.25968 -2.09973,0.38353 -3.12103,0.38752c-1.09629,0.004 -2.17472,-0.12784 -3.2353,-0.38752l-11.20572,-3.83129l0,8.09805c0.32139,4.20683 11.10931,5.49325 14.4196,5.66903c2.65324,0.14382 13.13405,-1.40627 14.51245,-3.8233c0.29639,-0.52735 0.48208,-1.16657 0.5535,-1.91764l0,0zm4.75297,-13.73512l0,9.76001l0.27497,0c0.18926,0 0.34281,0.17179 0.34281,0.38353l0,2.62477c0,0.20774 -0.15355,0.38353 -0.34281,0.38353l-0.27497,0l0,0.91887c0.34996,0.07191 0.61778,0.41948 0.61778,0.83098l0,0c0,0.46343 -0.34281,0.84696 -0.75705,0.84696l-1.3534,0c-0.41423,0 -0.75705,-0.37953 -0.75705,-0.84696l0,0c0,-0.41149 0.26782,-0.75907 0.61778,-0.83098l0,-0.91887l-0.27497,0c-0.18569,0 -0.34281,-0.17179 -0.34281,-0.38353l0,-2.62477c0,-0.21174 0.15355,-0.38353 0.34281,-0.38353l0.27497,0l0,-9.18871l-14.27676,4.9619c-2.58539,0.68716 -5.17077,0.7351 -7.75616,0l-15.75872,-5.26153l-1.42482,-0.47542c-1.77478,-0.811 -1.33197,-2.71666 0.32139,-3.15612l17.82274,-5.95268c1.83905,-0.58728 3.67453,-0.67917 5.51359,0l17.50136,5.88077c1.90333,0.51936 2.27828,2.48894 0.06428,3.29994l-0.37495,0.13184l0,0z" class="st0"/>
   </g>
  </g>
  <path transform="rotate(-18.8847 41.1292 158.905)" stroke-opacity="0.63" fill="none" stroke="url(#svg_9)" clip-rule="evenodd" fill-rule="evenodd" d="m41.02254,141.65632c9.05854,0 16.40441,7.53778 16.40441,16.83578c0,4.50302 -1.72361,8.59616 -4.53337,11.61689c0.91379,2.80456 1.21474,1.95673 4.74951,2.49294l0,3.50921c-5.2748,0.21897 -4.22422,-0.32004 -7.53739,-3.60185c-2.60183,1.77987 -5.72348,2.81579 -9.08316,2.81579c-9.06128,0 -16.40715,-7.53778 -16.40715,-16.83298c0,-9.298 7.34861,-16.83578 16.40715,-16.83578l0,0l0,0zm-8.84788,12.4226c2.43768,0 4.41573,2.02692 4.41573,4.53109c0,2.50137 -1.97531,4.52829 -4.41573,4.52829c-2.43768,0 -4.41299,-2.02692 -4.41299,-4.52829c0,-2.50417 1.97531,-4.53109 4.41299,-4.53109l0,0zm17.90642,0c2.43768,0 4.41573,2.02692 4.41573,4.53109c0,2.50137 -1.97531,4.52829 -4.41573,4.52829c-2.43768,0 -4.41299,-2.02692 -4.41299,-4.52829c0,-2.50417 1.97531,-4.53109 4.41299,-4.53109l0,0zm-8.82325,-9.37379c2.43768,0 4.41299,2.02691 4.41299,4.53109c0,2.50136 -1.97531,4.52828 -4.41299,4.52828c-2.43768,0 -4.41573,-2.02692 -4.41573,-4.52828c0,-2.50137 1.97805,-4.53109 4.41573,-4.53109l0,0l0,0zm-0.15595,11.46809c1.25304,0 2.27079,1.04434 2.27079,2.33011c0,1.28578 -1.01775,2.33012 -2.27079,2.33012c-1.25304,0 -2.27079,-1.04434 -2.27079,-2.33012c0,-1.28858 1.01775,-2.33011 2.27079,-2.33011l0,0l0,0zm0.15595,7.48725c2.43768,0 4.41299,2.02691 4.41299,4.53109c0,2.50136 -1.97531,4.52828 -4.41299,4.52828c-2.43768,0 -4.41573,-2.02692 -4.41573,-4.52828c0,-2.50137 1.97805,-4.53109 4.41573,-4.53109l0,0l0,0z" class="st0"/>
  <g transform="rotate(23.7386 144.731 36.9231)" stroke-opacity="0.63" stroke="null">
   <g stroke="null">
    <path fill="none" stroke="url(#svg_15)" d="m126.50868,20.105l7.63627,0l10.87781,0l10.64495,0l7.28514,0c1.23452,0 2.35815,0.48107 3.17131,1.25008c0.81316,0.77252 1.31583,1.84 1.31583,3.01282l0,2.50366l0,20.10303l0,2.48962c0,1.17282 -0.50637,2.2403 -1.31583,3.01282c-0.81316,0.77252 -1.93679,1.25008 -3.17131,1.25008l-7.09663,0c-0.05914,0.01053 -0.12197,0.01405 -0.1885,0.01405c-0.06283,0 -0.12567,-0.00351 -0.1885,-0.01405l-10.26794,0c-0.05914,0.01053 -0.12197,0.01405 -0.1885,0.01405c-0.06283,0 -0.12567,-0.00351 -0.1885,-0.01405l-10.5008,0c-0.05914,0.01053 -0.12197,0.01405 -0.1885,0.01405c-0.06283,0 -0.12567,-0.00351 -0.1885,-0.01405l-7.44777,0c-1.23452,0 -2.35815,-0.48107 -3.17131,-1.25008s-1.31583,-1.84 -1.31583,-3.01282l0,-2.48962l0,-20.10303l0,-2.50366c0,-1.17282 0.50637,-2.2403 1.31583,-3.01282c0.81316,-0.76901 1.93679,-1.25008 3.17131,-1.25008l0,0zm15.91199,10.96976l7.58822,5.02839c0.11828,0.07023 0.22547,0.16855 0.31048,0.28443c0.34005,0.46702 0.21438,1.10259 -0.27352,1.42565l-7.55866,4.96519c-0.18481,0.14397 -0.42506,0.23176 -0.68379,0.23176c-0.59878,0 -1.08298,-0.46 -1.08298,-1.02885l0,-10.06732l0.0037,0c0,-0.20366 0.06283,-0.40733 0.1922,-0.58641c0.34374,-0.46351 1.01645,-0.57588 1.50434,-0.25282l0,0zm14.32633,16.92869l0,3.66946l6.20216,0c0.63944,0 1.21973,-0.24931 1.6411,-0.64962c0.42136,-0.4003 0.68379,-0.9516 0.68379,-1.55908l0,-1.46076l-8.52705,0l0,0zm-2.16226,3.66946l0,-3.66946l-8.479,0l0,3.66946l8.479,0l0,0zm-10.64126,0l0,-3.66946l-8.71555,0l0,3.66946l8.71555,0l0,0zm-10.88151,0l0,-3.66946l-8.87819,0l0,1.46076c0,0.60748 0.26243,1.15878 0.68379,1.55908c0.42136,0.4003 1.00166,0.64962 1.6411,0.64962l6.5533,0l0,0zm-8.87819,-5.72366l9.96116,0l10.87781,0l10.64495,0l9.61003,0l0,-18.04884l-9.61003,0l-10.64495,0l-10.87781,0l-9.96116,0l0,18.04884l0,0zm30.40095,-20.10303l0,-3.68702l-8.479,0l0,3.68351l8.479,0l0,0.00351zm2.16226,-3.68702l0,3.68351l8.52705,0l0,-1.47481c0,-0.60748 -0.26243,-1.15878 -0.68379,-1.55908c-0.42136,-0.4003 -1.00166,-0.64962 -1.6411,-0.64962l-6.20216,0l0,0zm-12.80351,3.68702l0,-3.68702l-8.71555,0l0,3.68351l8.71555,0l0,0.00351zm-10.88151,0l0,-3.68702l-6.5533,0c-0.63944,0 -1.21973,0.24931 -1.6411,0.64962c-0.42136,0.4003 -0.68379,0.9516 -0.68379,1.55908l0,1.47481l8.87819,0l0,0.00351z"/>
   </g>
  </g>
  <g stroke-opacity="0.63" stroke="null">
   <g transform="rotate(22.3875 47.1923 52.9231)" stroke="null">
    <path fill="none" stroke="url(#svg_14)" clip-rule="evenodd" fill-rule="evenodd" d="m41.95572,46.60506l10.47613,0c0.71843,0 1.30436,0.67554 1.30436,1.49633l0,9.64c0,0.82416 -0.58888,1.49633 -1.30436,1.49633l-10.47613,0c-0.71843,0 -1.30436,-0.67217 -1.30436,-1.49633l0,-9.64c0,-0.82078 0.58593,-1.49633 1.30436,-1.49633l0,0zm-10.9914,-12.31853l0,2.10094l3.59804,0l0,-2.10094l1.86085,0l0,5.02604l21.53819,0l0,-5.02604l1.86085,0l0,2.10094l3.59804,0l0,-2.10094l1.86085,0l0,37.27308l-1.86085,0l0,-2.42858l-3.59804,0l0,2.42858l-1.86085,0l0,-5.25572l-21.53525,0l0,5.25572l-1.86085,0l0,-2.42858l-3.60099,0l0,2.42858l-1.86085,0l0,-37.27308l1.86085,0l0,0zm26.99709,7.16075l-21.53525,0l0,22.72189l21.53819,0l0,-22.72189l-0.00294,0zm5.46184,25.54903l0,-3.9857l-3.59804,0l0,3.9857l3.59804,0l0,0zm0,-6.12042l0,-3.9857l-3.59804,0l0,3.9857l3.59804,0l0,0zm0,-6.1238l0,-3.9857l-3.59804,0l0,3.9857l3.59804,0l0,0zm0,-6.12042l0,-3.9857l-3.59804,0l0,3.9857l3.59804,0l0,0zm0,-6.12042l0,-3.9857l-3.59804,0l0,3.9857l3.59804,0l0,0zm-28.86089,24.48505l0,-3.9857l-3.59804,0l0,3.9857l3.59804,0l0,0zm0,-6.12042l0,-3.9857l-3.59804,0l0,3.9857l3.59804,0l0,0zm0,-6.1238l0,-3.9857l-3.59804,0l0,3.9857l3.59804,0l0,0zm0,-6.12042l0,-3.9857l-3.59804,0l0,3.9857l3.59804,0l0,0zm0,-6.12042l0,-3.9857l-3.59804,0l0,3.9857l3.59804,0l0,0zm8.29434,10.35607c0,-0.3479 0.05005,-0.68905 0.15311,-1.02345c0.10011,-0.33777 0.25027,-0.63839 0.4446,-0.90523c0.19433,-0.26684 0.42988,-0.48301 0.70665,-0.64852c0.27677,-0.16551 0.59477,-0.24995 0.95104,-0.24995c0.42694,0 0.79498,0.11484 1.10709,0.34115c0.31211,0.22631 0.54471,0.52692 0.69782,0.90185l-0.92454,0.84781c-0.04122,-0.13849 -0.09716,-0.25333 -0.16489,-0.34453c-0.06772,-0.0912 -0.14427,-0.16213 -0.22672,-0.21617c-0.08244,-0.05404 -0.16783,-0.0912 -0.25911,-0.11146c-0.08833,-0.02027 -0.17372,-0.0304 -0.25911,-0.0304c-0.17372,0 -0.32388,0.04391 -0.45049,0.13173c-0.12661,0.08782 -0.22966,0.20266 -0.30916,0.34453c-0.0795,0.14186 -0.14133,0.30062 -0.17961,0.47964c-0.03828,0.17902 -0.05889,0.35804 -0.05889,0.53368c0,0.19929 0.02356,0.38844 0.06772,0.56746c0.04711,0.1824 0.11189,0.34115 0.20022,0.47964c0.08833,0.13849 0.19433,0.24995 0.32094,0.33102c0.12661,0.08444 0.26794,0.12498 0.42399,0.12498c0.08244,0 0.16783,-0.01351 0.25322,-0.03715c0.08833,-0.02364 0.17077,-0.06418 0.25027,-0.1216c0.0795,-0.05742 0.15311,-0.12835 0.21788,-0.21617c0.06478,-0.08782 0.11483,-0.19591 0.15311,-0.32426l0.98637,0.75999c-0.06772,0.20942 -0.16783,0.39519 -0.30033,0.5607c-0.13544,0.16551 -0.28855,0.30399 -0.45932,0.41546c-0.17077,0.11146 -0.35627,0.19591 -0.55354,0.25671c-0.19727,0.05742 -0.38866,0.08782 -0.57416,0.08782c-0.32683,0 -0.62715,-0.08444 -0.89804,-0.25333c-0.27088,-0.16889 -0.50643,-0.39181 -0.70076,-0.66879c-0.19727,-0.27697 -0.34744,-0.5911 -0.45638,-0.94576c-0.106,-0.3479 -0.159,-0.70594 -0.159,-1.06736l0,0l0,0zm4.56969,0c0,-0.3479 0.05005,-0.68905 0.15311,-1.02345c0.10011,-0.33777 0.25027,-0.63839 0.4446,-0.90523c0.19433,-0.26684 0.42988,-0.48301 0.70665,-0.64852c0.27677,-0.16551 0.59477,-0.24995 0.95104,-0.24995c0.42694,0 0.79498,0.11484 1.10709,0.34115c0.31211,0.22631 0.54471,0.52692 0.69782,0.90185l-0.92454,0.84781c-0.04122,-0.13849 -0.09716,-0.25333 -0.16489,-0.34453c-0.06772,-0.0912 -0.14427,-0.16213 -0.22672,-0.21617c-0.08244,-0.05404 -0.16783,-0.0912 -0.25911,-0.11146c-0.08833,-0.02027 -0.17372,-0.0304 -0.25911,-0.0304c-0.17372,0 -0.32388,0.04391 -0.45049,0.13173c-0.12661,0.08782 -0.22966,0.20266 -0.30916,0.34453c-0.0795,0.14186 -0.14133,0.30062 -0.17961,0.47964c-0.03828,0.17902 -0.05889,0.35804 -0.05889,0.53368c0,0.19929 0.02356,0.38844 0.06772,0.56746c0.04417,0.1824 0.11189,0.34115 0.19727,0.47964c0.08833,0.13849 0.19433,0.24995 0.32094,0.33102c0.12661,0.08444 0.26794,0.12498 0.42399,0.12498c0.08244,0 0.16783,-0.01351 0.25322,-0.03715c0.08833,-0.02364 0.17077,-0.06418 0.25027,-0.1216c0.0795,-0.05742 0.15311,-0.12835 0.21788,-0.21617c0.06478,-0.08782 0.11483,-0.19591 0.15311,-0.32426l0.98637,0.75999c-0.06772,0.20942 -0.16783,0.39519 -0.30033,0.5607c-0.13544,0.16551 -0.28855,0.30399 -0.45932,0.41546c-0.17077,0.11146 -0.35627,0.19591 -0.55354,0.25671c-0.19727,0.05742 -0.38866,0.08782 -0.57416,0.08782c-0.32683,0 -0.62715,-0.08444 -0.89804,-0.25333c-0.27088,-0.16889 -0.50643,-0.39181 -0.70076,-0.66879c-0.19727,-0.27697 -0.34744,-0.5911 -0.45638,-0.94576c-0.10011,-0.3479 -0.15605,-0.70594 -0.15605,-1.06736l0,0l0,0z" class="st0"/>
   </g>
  </g>
  <path id="svg_19" d="m231.53384,166.67139l0.56913,0l0.17587,-0.54067l0.17587,0.54067l0.56913,0l-0.46044,0.33415l0.17588,0.54067l-0.46044,-0.33416l-0.46044,0.33416l0.17588,-0.54067l-0.46044,-0.33415z" stroke-opacity="0.63" stroke="url(#svg_18)" fill="none"/>
  <path id="svg_20" d="m232.68193,132.99446l0.56913,0l0.17587,-0.54067l0.17587,0.54067l0.56913,0l-0.46044,0.33415l0.17588,0.54067l-0.46044,-0.33416l-0.46044,0.33416l0.17588,-0.54067l-0.46044,-0.33415z" stroke-opacity="0.63" stroke="url(#svg_18)" fill="none"/>
 </g>
</svg>