<svg width="446" height="511.568" xmlns="http://www.w3.org/2000/svg" stroke="null" style="vector-effect: non-scaling-stroke;" clip-rule="evenodd" fill-rule="evenodd" image-rendering="optimizeQuality" text-rendering="geometricPrecision" shape-rendering="geometricPrecision">

  <g stroke="null">
    <title stroke="null">Layer 1</title>
    <path fill="rgba(255, 215, 0, 1)" stroke="rgba(0, 87, 184)" id="svg_1" d="m81.772,0.188l339.507,0c8.355,0 15.131,6.775 15.131,15.131c0,96.062 0.132,157.363 0.274,215.529c0.574,0.482 1.13,0.99 1.661,1.52l0.059,0.06c4.682,4.689 7.596,11.146 7.596,18.248l0,46.23c0,7.102 -2.914,13.559 -7.596,18.248l-0.059,0.059c-0.467,0.467 -0.954,0.915 -1.455,1.345c0.148,62.962 0.27,121.655 0.27,164.116c0,8.508 -3.463,16.225 -9.049,21.811c-5.585,5.586 -13.302,9.049 -21.811,9.049l-327.906,0l-1.13,-0.042c-5.154,0.066 -9.973,0.087 -14.483,0.03a15.514,15.514 0 0 1 -2.8,-0.039c-4.588,-0.094 -8.854,-0.293 -12.829,-0.638l-0.496,-0.044l-0.295,-0.025l-0.566,-0.052l-0.219,-0.023l-0.631,-0.062l-0.144,-0.016c-8.964,-0.915 -16.338,-2.642 -22.539,-5.72c-15.281,-7.585 -21.738,-20.163 -22.23,-42.351l-0.014,-0.602l-0.004,-0.327l-0.009,-0.773l0,-0.165l-0.005,-0.949l0,-377.778l0.059,0c-0.004,-6.478 -0.029,-12.962 0.021,-19.439c0.249,-29.988 2.486,-46.873 19.936,-55.347c11.978,-6.144 31.127,-7.866 61.756,-6.936l0,-0.048zm-5.055,15.007l0,481.231l1.677,-0.023l327.906,0c8.662,0 15.73,-7.068 15.73,-15.729c0,-54.753 -0.085,-106.786 -0.197,-157.924c-0.574,0.036 -1.153,0.059 -1.736,0.059l-122.346,0c-8.355,0 -15.13,-6.775 -15.13,-15.13l0,-67.776c0,-8.356 6.775,-15.13 15.13,-15.13l122.346,0c0.503,0 1.004,0.013 1.5,0.043c-0.167,-67.874 -0.318,-136.25 -0.318,-209.497l-37.284,0l0,141.746a2.81,2.81 0 0 1 -0.508,1.583a2.753,2.753 0 0 1 -3.834,0.668l-31.143,-21.917l-32.71,21.82a2.758,2.758 0 0 1 -4.481,-2.154l0,-141.746l-229.547,0a491.646,491.646 0 0 0 -5.11,-0.131l0,0.007l0.055,0zm-15.13,481.243a244.333,244.333 0 0 1 -6.683,-0.193c-29.285,-1.185 -39.774,-7.403 -39.774,-39.178l0,-375.109c0,-9.666 -0.345,-20.43 0.391,-30.562c0.833,-11.425 2.521,-23.291 13.489,-29.881l0.26,-0.151c8.854,-5.014 22.351,-5.896 32.317,-6.169l0,481.243zm57.563,-362.522c-4.876,0 -8.833,-3.957 -8.833,-8.834c0,-4.876 3.957,-8.833 8.833,-8.833l137.364,0c4.877,0 8.834,3.957 8.834,8.833a8.836,8.836 0 0 1 -8.834,8.834l-137.364,0zm0,-44.307c-4.876,0 -8.833,-3.957 -8.833,-8.833c0,-4.877 3.957,-8.834 8.833,-8.834l137.364,0a8.836,8.836 0 0 1 8.834,8.834c0,4.876 -3.957,8.833 -8.834,8.833l-137.364,0zm0.003,88.615c-4.877,0 -8.834,-3.957 -8.834,-8.833s3.957,-8.833 8.834,-8.833l116.423,0c4.877,0 8.834,3.957 8.834,8.833s-3.957,8.833 -8.834,8.833l-116.423,0zm178.598,61.679l26.763,0l0,67.776l-26.763,0l0,-67.776zm101.367,24.4c5.24,0 9.487,4.248 9.487,9.488a9.486,9.486 0 0 1 -9.487,9.487a9.488,9.488 0 0 1 0,-18.975zm-60.354,-24.4l81.333,0c5.926,0 10.773,4.846 10.773,10.773l0,46.23c0,5.926 -4.847,10.773 -10.773,10.773l-81.333,0l0,-67.776z"/>
    
    <g transform="translate(130, 300)">
      <path fill="red" fill-rule="evenodd" clip-rule="evenodd" d="M2.347,9.633h38.297V3.76c0-2.068,1.689-3.76,3.76-3.76h21.144 c2.07,0,3.76,1.691,3.76,3.76v5.874h37.83c1.293,0,2.347,1.057,2.347,2.349v11.514H0V11.982C0,10.69,1.055,9.633,2.347,9.633 L2.347,9.633z M8.69,29.605h92.921c1.937,0,3.696,1.599,3.521,3.524l-7.864,86.229c-0.174,1.926-1.59,3.521-3.523,3.521h-77.3 c-1.934,0-3.352-1.592-3.524-3.521L5.166,33.129C4.994,31.197,6.751,29.605,8.69,29.605L8.69,29.605z"/>
    </g>
  </g>
</svg>